<svg width="1440" height="743" viewBox="0 0 1440 743" fill="none" xmlns="http://www.w3.org/2000/svg">
<path d="M0 0H1440V558.531H0V0ZM0 669.212L360 743L720 706.106H1080L1440 743V558.531H0V669.212ZM0 0H1440V558.531H0V0ZM0 669.212L360 743L720 706.106H1080L1440 743V558.531H0V669.212Z" fill="#2435A1"/>
<path fill-rule="evenodd" clip-rule="evenodd" d="M0 0H1440V558.531H0V0ZM0 669.212L360 743L720 706.106H1080L1440 743V558.531H0V669.212ZM0 0H1440V558.531H0V0ZM0 669.212L360 743L720 706.106H1080L1440 743V558.531H0V669.212Z" fill="#2435A1"/>
</svg>
