<svg width="39" height="45" viewBox="0 0 39 45" fill="none" xmlns="http://www.w3.org/2000/svg">
<path d="M19.5218 45C27.4788 39.5573 30.612 35.598 34.5513 27.4069L8.82084 17.3537C8.15962 15.2126 7.93498 13.8481 7.85895 11.1303L19.5218 15.4388L30.824 11.1303C31.1327 13.0436 30.7932 15.2269 29.2609 21.1835L35.6334 23.9362C38.1969 15.8631 38.8371 10.525 39 0L19.5218 7.65957L0.0436308 0C-0.169409 10.6971 0.361135 15.7627 2.44834 23.0984L23.9705 30.8777C22.5226 33.0666 21.5342 34.0999 19.5218 35.6649C17.5244 34.1938 16.4817 33.1803 14.8326 30.8777L4.37212 27.4069C8.58945 34.8684 11.6527 38.8091 19.5218 45Z" fill="#FF0000"/>
</svg>
