<svg width="178" height="52" viewBox="0 0 178 52" fill="none" xmlns="http://www.w3.org/2000/svg">
<path d="M15.128 45.288C13.8 45.288 12.568 45.072 11.432 44.64C10.312 44.208 9.336 43.6 8.504 42.816C7.688 42.032 7.048 41.112 6.584 40.056C6.136 39 5.912 37.848 5.912 36.6C5.912 35.352 6.136 34.2 6.584 33.144C7.048 32.088 7.696 31.168 8.528 30.384C9.36 29.6 10.336 28.992 11.456 28.56C12.576 28.128 13.792 27.912 15.104 27.912C16.432 27.912 17.648 28.128 18.752 28.56C19.872 28.992 20.84 29.6 21.656 30.384C22.488 31.168 23.136 32.088 23.6 33.144C24.064 34.184 24.296 35.336 24.296 36.6C24.296 37.848 24.064 39.008 23.6 40.08C23.136 41.136 22.488 42.056 21.656 42.84C20.84 43.608 19.872 44.208 18.752 44.64C17.648 45.072 16.44 45.288 15.128 45.288ZM15.104 41.976C15.856 41.976 16.544 41.848 17.168 41.592C17.808 41.336 18.368 40.968 18.848 40.488C19.328 40.008 19.696 39.44 19.952 38.784C20.224 38.128 20.36 37.4 20.36 36.6C20.36 35.8 20.224 35.072 19.952 34.416C19.696 33.76 19.328 33.192 18.848 32.712C18.384 32.232 17.832 31.864 17.192 31.608C16.552 31.352 15.856 31.224 15.104 31.224C14.352 31.224 13.656 31.352 13.016 31.608C12.392 31.864 11.84 32.232 11.36 32.712C10.88 33.192 10.504 33.76 10.232 34.416C9.976 35.072 9.848 35.8 9.848 36.6C9.848 37.384 9.976 38.112 10.232 38.784C10.504 39.44 10.872 40.008 11.336 40.488C11.816 40.968 12.376 41.336 13.016 41.592C13.656 41.848 14.352 41.976 15.104 41.976ZM34.7111 45.192C33.6231 45.192 32.6711 44.952 31.8551 44.472C31.0391 43.992 30.3991 43.264 29.9351 42.288C29.4871 41.296 29.2631 40.048 29.2631 38.544C29.2631 37.024 29.4791 35.776 29.9111 34.8C30.3431 33.824 30.9671 33.096 31.7831 32.616C32.5991 32.136 33.5751 31.896 34.7111 31.896C35.9271 31.896 37.0151 32.176 37.9751 32.736C38.9511 33.28 39.7191 34.048 40.2791 35.04C40.8551 36.032 41.1431 37.2 41.1431 38.544C41.1431 39.904 40.8551 41.08 40.2791 42.072C39.7191 43.064 38.9511 43.832 37.9751 44.376C37.0151 44.92 35.9271 45.192 34.7111 45.192ZM27.0791 49.656V32.088H30.6551V34.728L30.5831 38.568L30.8231 42.384V49.656H27.0791ZM34.0631 42.12C34.6871 42.12 35.2391 41.976 35.7191 41.688C36.2151 41.4 36.6071 40.992 36.8951 40.464C37.1991 39.92 37.3511 39.28 37.3511 38.544C37.3511 37.792 37.1991 37.152 36.8951 36.624C36.6071 36.096 36.2151 35.688 35.7191 35.4C35.2391 35.112 34.6871 34.968 34.0631 34.968C33.4391 34.968 32.8791 35.112 32.3831 35.4C31.8871 35.688 31.4951 36.096 31.2071 36.624C30.9191 37.152 30.7751 37.792 30.7751 38.544C30.7751 39.28 30.9191 39.92 31.2071 40.464C31.4951 40.992 31.8871 41.4 32.3831 41.688C32.8791 41.976 33.4391 42.12 34.0631 42.12ZM46.1584 45V34.296L46.9984 35.16H41.7904V32.088H54.2464V35.16H49.0384L49.8784 34.296V45H46.1584ZM61.8511 45.192C60.4751 45.192 59.2511 44.904 58.1791 44.328C57.1231 43.752 56.2831 42.968 55.6591 41.976C55.0511 40.968 54.7471 39.824 54.7471 38.544C54.7471 37.248 55.0511 36.104 55.6591 35.112C56.2831 34.104 57.1231 33.32 58.1791 32.76C59.2511 32.184 60.4751 31.896 61.8511 31.896C63.2111 31.896 64.4271 32.184 65.4991 32.76C66.5711 33.32 67.4111 34.096 68.0191 35.088C68.6271 36.08 68.9311 37.232 68.9311 38.544C68.9311 39.824 68.6271 40.968 68.0191 41.976C67.4111 42.968 66.5711 43.752 65.4991 44.328C64.4271 44.904 63.2111 45.192 61.8511 45.192ZM61.8511 42.12C62.4751 42.12 63.0351 41.976 63.5311 41.688C64.0271 41.4 64.4191 40.992 64.7071 40.464C64.9951 39.92 65.1391 39.28 65.1391 38.544C65.1391 37.792 64.9951 37.152 64.7071 36.624C64.4191 36.096 64.0271 35.688 63.5311 35.4C63.0351 35.112 62.4751 34.968 61.8511 34.968C61.2271 34.968 60.6671 35.112 60.1711 35.4C59.6751 35.688 59.2751 36.096 58.9711 36.624C58.6831 37.152 58.5391 37.792 58.5391 38.544C58.5391 39.28 58.6831 39.92 58.9711 40.464C59.2751 40.992 59.6751 41.4 60.1711 41.688C60.6671 41.976 61.2271 42.12 61.8511 42.12ZM78.5031 45V32.088H82.4151L87.2871 40.92H85.7271L90.9351 32.088H94.4391L94.4871 45H91.1031V35.928L91.6791 36.312L87.2391 43.752H85.6551L81.1911 36.048L81.8871 35.88V45H78.5031ZM104.485 45.192C103.013 45.192 101.717 44.904 100.597 44.328C99.4934 43.752 98.6374 42.968 98.0294 41.976C97.4214 40.968 97.1174 39.824 97.1174 38.544C97.1174 37.248 97.4134 36.104 98.0054 35.112C98.6134 34.104 99.4374 33.32 100.477 32.76C101.517 32.184 102.693 31.896 104.005 31.896C105.269 31.896 106.405 32.168 107.413 32.712C108.437 33.24 109.245 34.008 109.837 35.016C110.429 36.008 110.725 37.2 110.725 38.592C110.725 38.736 110.717 38.904 110.701 39.096C110.685 39.272 110.669 39.44 110.653 39.6H100.165V37.416H108.685L107.245 38.064C107.245 37.392 107.109 36.808 106.837 36.312C106.565 35.816 106.189 35.432 105.709 35.16C105.229 34.872 104.669 34.728 104.029 34.728C103.389 34.728 102.821 34.872 102.325 35.16C101.845 35.432 101.469 35.824 101.197 36.336C100.925 36.832 100.789 37.424 100.789 38.112V38.688C100.789 39.392 100.941 40.016 101.245 40.56C101.565 41.088 102.005 41.496 102.565 41.784C103.141 42.056 103.813 42.192 104.581 42.192C105.269 42.192 105.869 42.088 106.381 41.88C106.909 41.672 107.389 41.36 107.821 40.944L109.813 43.104C109.221 43.776 108.477 44.296 107.581 44.664C106.685 45.016 105.653 45.192 104.485 45.192ZM122.839 45L118.519 38.88L121.567 37.08L127.255 45H122.839ZM113.695 45V32.088H117.439V45H113.695ZM116.335 40.104V37.104H120.847V40.104H116.335ZM121.927 38.976L118.423 38.592L122.959 32.088H126.943L121.927 38.976ZM131.837 45V34.296L132.677 35.16H127.469V32.088H139.925V35.16H134.717L135.557 34.296V45H131.837ZM147.793 45.192C146.321 45.192 145.025 44.904 143.905 44.328C142.801 43.752 141.945 42.968 141.337 41.976C140.729 40.968 140.425 39.824 140.425 38.544C140.425 37.248 140.721 36.104 141.313 35.112C141.921 34.104 142.745 33.32 143.785 32.76C144.825 32.184 146.001 31.896 147.313 31.896C148.577 31.896 149.713 32.168 150.721 32.712C151.745 33.24 152.553 34.008 153.145 35.016C153.737 36.008 154.033 37.2 154.033 38.592C154.033 38.736 154.025 38.904 154.009 39.096C153.993 39.272 153.977 39.44 153.961 39.6H143.473V37.416H151.993L150.553 38.064C150.553 37.392 150.417 36.808 150.145 36.312C149.873 35.816 149.497 35.432 149.017 35.16C148.537 34.872 147.977 34.728 147.337 34.728C146.697 34.728 146.129 34.872 145.633 35.16C145.153 35.432 144.777 35.824 144.505 36.336C144.233 36.832 144.097 37.424 144.097 38.112V38.688C144.097 39.392 144.249 40.016 144.553 40.56C144.873 41.088 145.313 41.496 145.873 41.784C146.449 42.056 147.121 42.192 147.889 42.192C148.577 42.192 149.177 42.088 149.689 41.88C150.217 41.672 150.697 41.36 151.129 40.944L153.121 43.104C152.529 43.776 151.785 44.296 150.889 44.664C149.993 45.016 148.961 45.192 147.793 45.192ZM157.003 45V32.088H169.843V45H166.099V34.32L166.939 35.16H159.883L160.723 34.32V45H157.003Z" fill="white"/>
<path d="M2 27.5L49.5 3L177.5 27.5" stroke="#FC724D" stroke-width="5"/>
</svg>
